<?xml version="1.0" encoding="UTF-8" standalone="no"?>
<!-- Created with Inkscape (http://www.inkscape.org/) -->

<svg
   width="0.12896276cm"
   height="0.19999999cm"
   viewBox="0 0 1.2896275 1.9999999"
   version="1.1"
   id="svg1"
   xmlns="http://www.w3.org/2000/svg"
   xmlns:svg="http://www.w3.org/2000/svg">
  <defs
     id="defs1" />
  <g
     id="layer1"
     transform="translate(-0.35518616)">
    <path
       style="fill:#010101;stroke:none;stroke-width:0.0044375"
       d="M 1.0021811,1.3746778e-8 C 0.8054558,0.26103031 0.6317662,0.54507981 0.50151891,0.84534361 0.43704641,0.99397831 0.37210954,1.1523272 0.35663152,1.3149784 0.35012052,1.3832559 0.36660452,1.456646 0.38611232,1.5216185 0.47040082,1.8025554 0.7367168,2.0124401 1.033879,1.9994263 1.115195,1.9958553 1.1958515,1.976734 1.2698708,1.9427532 1.4478461,1.8610334 1.5755961,1.6870719 1.6225357,1.4993108 1.63825,1.4364811 1.649294,1.3690773 1.6430302,1.3044124 1.6281675,1.1508519 1.5715164,0.99954151 1.5122307,0.85825851 1.3835246,0.55154681 1.204313,0.26509621 1.0045245,1.3746778e-8 Z"
       id="path30" />
  </g>
</svg>
